PathFileType  4	(X/Y/Z) /dataNAS/people/anoopai/OpenCap/opencap-core/Examples/Data/9a8302fa-da69-4037-8ff7-a272adde5208/MarkerData/PreAugmentation
DataRate	CameraRate	NumFrames	NumMarkers	Units	OrigDataRate	OrigDataStartFrame	OrigNumFrames
60.0	60.0	18	20	m	60.0	1	50
Frame#	Time	Neck			RShoulder			RElbow			RWrist			LShoulder			LElbow			LWrist			midHip			RHip			RKnee			RAnkle			LHip			LKnee			LAnkle			LBigToe			LSmallToe			LHeel			RBigToe			RSmallToe			RHeel			
		X1	Y1	Z1	X2	Y2	Z2	X3	Y3	Z3	X4	Y4	Z4	X5	Y5	Z5	X6	Y6	Z6	X7	Y7	Z7	X8	Y8	Z8	X9	Y9	Z9	X10	Y10	Z10	X11	Y11	Z11	X12	Y12	Z12	X13	Y13	Z13	X14	Y14	Z14	X15	Y15	Z15	X16	Y16	Z16	X17	Y17	Z17	X18	Y18	Z18	X19	Y19	Z19	X20	Y20	Z20	

1	0.0000000	0.3746600	1.1284600	-0.1478300	0.3881200	1.1322000	0.0344100	0.4766100	0.9260600	0.1829800	0.5890000	0.7552700	0.3551200	0.3718400	1.1228500	-0.3317800	0.4626500	0.9382600	-0.4950000	0.5608400	0.7593600	-0.6644400	0.3861000	0.5832200	-0.1317100	0.4037700	0.5891500	-0.0102300	0.3084700	0.2015100	0.0066300	0.2598100	-0.1818100	0.0227900	0.3740900	0.5778900	-0.2543300	0.2788600	0.1981300	-0.2575500	0.2330400	-0.1779300	-0.2749500	0.4062500	-0.2402700	-0.3372900	0.4008700	-0.2393200	-0.3361400	0.1987200	-0.2108200	-0.2605600	0.4416400	-0.2409500	0.0431900	0.4376700	-0.2386500	0.0442600	0.2315400	-0.2112200	0.0247800
2	0.0166667	0.3746000	1.1283600	-0.1479100	0.3881100	1.1321800	0.0344600	0.4766200	0.9259800	0.1829800	0.5891100	0.7554000	0.3552200	0.3717300	1.1226700	-0.3320300	0.4628400	0.9381100	-0.4953200	0.5607700	0.7592400	-0.6645100	0.3860100	0.5825600	-0.1316800	0.4039700	0.5885900	-0.0100700	0.3081900	0.2013800	0.0067100	0.2599600	-0.1816500	0.0229800	0.3739900	0.5771500	-0.2542700	0.2791500	0.1985700	-0.2576200	0.2327500	-0.1779900	-0.2750700	0.4063400	-0.2402800	-0.3374300	0.4009900	-0.2393500	-0.3362700	0.1983000	-0.2110400	-0.2607000	0.4419600	-0.2409300	0.0433700	0.4380000	-0.2386200	0.0444200	0.2316000	-0.2110900	0.0249700
3	0.0333333	0.3745100	1.1282600	-0.1479700	0.3881300	1.1321600	0.0345300	0.4766700	0.9258700	0.1830100	0.5892000	0.7555500	0.3553300	0.3716000	1.1224700	-0.3322200	0.4630500	0.9379600	-0.4955800	0.5607000	0.7591100	-0.6645600	0.3859700	0.5820000	-0.1316100	0.4040000	0.5880900	-0.0099400	0.3079700	0.2012200	0.0067600	0.2601300	-0.1815200	0.0230800	0.3738600	0.5765600	-0.2542700	0.2794200	0.1990600	-0.2576600	0.2325100	-0.1780700	-0.2751900	0.4063400	-0.2402600	-0.3375200	0.4010200	-0.2393400	-0.3363800	0.1979800	-0.2112200	-0.2608500	0.4422000	-0.2408700	0.0435400	0.4382600	-0.2385700	0.0445900	0.2315400	-0.2110900	0.0251000
4	0.0500000	0.3744400	1.1282100	-0.1480000	0.3881700	1.1321700	0.0346300	0.4766500	0.9259700	0.1830000	0.5892300	0.7556800	0.3554100	0.3714500	1.1223600	-0.3323900	0.4632500	0.9378500	-0.4957800	0.5606400	0.7589700	-0.6645800	0.3859900	0.5816200	-0.1316000	0.4042300	0.5877200	-0.0099000	0.3077700	0.2010900	0.0067700	0.2602300	-0.1814000	0.0231600	0.3737500	0.5761900	-0.2542500	0.2797200	0.1995200	-0.2576500	0.2323500	-0.1781100	-0.2752800	0.4063400	-0.2402700	-0.3375800	0.4010400	-0.2393600	-0.3364400	0.1977500	-0.2113600	-0.2609300	0.4423800	-0.2408300	0.0436900	0.4384600	-0.2385300	0.0447300	0.2316200	-0.2109900	0.0251000
5	0.0666667	0.3743800	1.1282100	-0.1480000	0.3882200	1.1322000	0.0347400	0.4766700	0.9259300	0.1830300	0.5893100	0.7557600	0.3555100	0.3712800	1.1223100	-0.3324800	0.4633700	0.9378400	-0.4959000	0.5605700	0.7589200	-0.6645900	0.3860500	0.5813100	-0.1315400	0.4043700	0.5874400	-0.0097900	0.3076300	0.2009900	0.0067500	0.2602800	-0.1813600	0.0231900	0.3737000	0.5758100	-0.2542500	0.2800100	0.1999500	-0.2575800	0.2322400	-0.1781700	-0.2753400	0.4063900	-0.2402900	-0.3375900	0.4010700	-0.2393900	-0.3364500	0.1976600	-0.2114700	-0.2609900	0.4425200	-0.2408300	0.0438000	0.4386100	-0.2385300	0.0448300	0.2316300	-0.2109200	0.0251300
6	0.0833333	0.3743200	1.1282300	-0.1479600	0.3882800	1.1322300	0.0348900	0.4766900	0.9258100	0.1830800	0.5893500	0.7557300	0.3555500	0.3711100	1.1223300	-0.3325500	0.4634400	0.9378500	-0.4959200	0.5605100	0.7588600	-0.6645500	0.3861100	0.5811400	-0.1315300	0.4045600	0.5872800	-0.0097600	0.3074700	0.2008700	0.0067200	0.2602900	-0.1813000	0.0231800	0.3737000	0.5755900	-0.2542300	0.2802800	0.2003800	-0.2574600	0.2321800	-0.1782100	-0.2753900	0.4064100	-0.2403100	-0.3375800	0.4010700	-0.2394200	-0.3364400	0.1975600	-0.2114900	-0.2610900	0.4425900	-0.2408100	0.0438600	0.4387000	-0.2385200	0.0448900	0.2317300	-0.2107900	0.0251300
7	0.1000000	0.3742700	1.1282400	-0.1479200	0.3883700	1.1322300	0.0350000	0.4766300	0.9258800	0.1831400	0.5893800	0.7557100	0.3556500	0.3709600	1.1223500	-0.3325800	0.4634800	0.9378700	-0.4959500	0.5604600	0.7588700	-0.6644900	0.3862000	0.5810600	-0.1315000	0.4046800	0.5872400	-0.0097400	0.3074200	0.2008100	0.0066800	0.2602500	-0.1812600	0.0231700	0.3737300	0.5754600	-0.2542200	0.2805100	0.2007100	-0.2572800	0.2321400	-0.1782500	-0.2754400	0.4063600	-0.2403000	-0.3375400	0.4010300	-0.2394000	-0.3363900	0.1974700	-0.2115400	-0.2611400	0.4426000	-0.2407900	0.0438700	0.4387000	-0.2385100	0.0449100	0.2317500	-0.2107600	0.0250800
8	0.1166667	0.3741800	1.1282300	-0.1478300	0.3882900	1.1322800	0.0351600	0.4765000	0.9260100	0.1832000	0.5892300	0.7558400	0.3558400	0.3708500	1.1223600	-0.3325800	0.4633700	0.9380200	-0.4958800	0.5604300	0.7589300	-0.6644000	0.3863000	0.5810700	-0.1314900	0.4048700	0.5872800	-0.0097000	0.3073900	0.2007900	0.0066800	0.2601900	-0.1813000	0.0231200	0.3738200	0.5754100	-0.2542000	0.2806700	0.2009400	-0.2570800	0.2320800	-0.1783100	-0.2754600	0.4063700	-0.2403100	-0.3374900	0.4010100	-0.2393800	-0.3363400	0.1975200	-0.2115600	-0.2612700	0.4425700	-0.2407800	0.0438300	0.4386600	-0.2385000	0.0448800	0.2315500	-0.2108900	0.0251400
9	0.1333333	0.3741700	1.1282600	-0.1477900	0.3883200	1.1322500	0.0352600	0.4763700	0.9259400	0.1832600	0.5892700	0.7556500	0.3558600	0.3707300	1.1224600	-0.3326000	0.4633000	0.9380500	-0.4957600	0.5604200	0.7590100	-0.6643000	0.3864500	0.5812200	-0.1314900	0.4050100	0.5874400	-0.0097800	0.3074200	0.2008400	0.0067300	0.2600900	-0.1813700	0.0231000	0.3739100	0.5754800	-0.2541800	0.2807800	0.2010400	-0.2568800	0.2320200	-0.1783600	-0.2755000	0.4064000	-0.2402600	-0.3374200	0.4010100	-0.2393400	-0.3362700	0.1974600	-0.2116100	-0.2613500	0.4425300	-0.2407900	0.0437700	0.4386100	-0.2385200	0.0448200	0.2314900	-0.2109900	0.0250800
10	0.1500000	0.3741900	1.1282600	-0.1477700	0.3885300	1.1321100	0.0352500	0.4762300	0.9258200	0.1833400	0.5893900	0.7553300	0.3558100	0.3706200	1.1225200	-0.3325900	0.4632200	0.9380900	-0.4957100	0.5604300	0.7590300	-0.6641900	0.3865500	0.5813100	-0.1314300	0.4051000	0.5876000	-0.0096800	0.3074800	0.2008300	0.0067800	0.2599800	-0.1814600	0.0230800	0.3740200	0.5756000	-0.2541300	0.2808100	0.2010300	-0.2567000	0.2319700	-0.1783600	-0.2755900	0.4064100	-0.2401800	-0.3373600	0.4010200	-0.2392700	-0.3362200	0.1971800	-0.2116300	-0.2613800	0.4424900	-0.2408200	0.0436900	0.4385800	-0.2385400	0.0447300	0.2315900	-0.2109800	0.0249900
11	0.1666667	0.3742000	1.1282300	-0.1477300	0.3885900	1.1320200	0.0353100	0.4760500	0.9257700	0.1834300	0.5893500	0.7552200	0.3558800	0.3705500	1.1225300	-0.3325900	0.4631200	0.9381500	-0.4956200	0.5604600	0.7591200	-0.6641100	0.3866800	0.5815200	-0.1313900	0.4052700	0.5878200	-0.0096700	0.3075700	0.2008000	0.0068400	0.2598700	-0.1815500	0.0230500	0.3741300	0.5758000	-0.2540700	0.2807600	0.2009200	-0.2565600	0.2318700	-0.1783600	-0.2756500	0.4064000	-0.2400700	-0.3373100	0.4009900	-0.2391500	-0.3361800	0.1970400	-0.2116300	-0.2615100	0.4424300	-0.2408100	0.0435900	0.4385200	-0.2385300	0.0446400	0.2315600	-0.2110300	0.0249900
12	0.1833333	0.3741500	1.1282000	-0.1476400	0.3885200	1.1320400	0.0355200	0.4758800	0.9257700	0.1835400	0.5891600	0.7553200	0.3560700	0.3704900	1.1225400	-0.3325800	0.4629600	0.9382800	-0.4954900	0.5605200	0.7592000	-0.6640300	0.3868700	0.5818800	-0.1314400	0.4055500	0.5880800	-0.0098500	0.3076400	0.2007700	0.0069200	0.2597800	-0.1816600	0.0229900	0.3742000	0.5761300	-0.2540100	0.2806300	0.2008000	-0.2564800	0.2317500	-0.1784900	-0.2757200	0.4064500	-0.2399300	-0.3372700	0.4010100	-0.2390300	-0.3361500	0.1970000	-0.2116200	-0.2617400	0.4423600	-0.2407200	0.0434800	0.4384400	-0.2384600	0.0445500	0.2312900	-0.2111500	0.0252000
13	0.2000000	0.3742000	1.1281800	-0.1476100	0.3888000	1.1318400	0.0355300	0.4758000	0.9256000	0.1836700	0.5893100	0.7550300	0.3560200	0.3704000	1.1225900	-0.3325400	0.4629000	0.9382800	-0.4953600	0.5605800	0.7593000	-0.6639700	0.3870500	0.5820700	-0.1312800	0.4055300	0.5882100	-0.0097100	0.3077200	0.2007300	0.0070000	0.2596800	-0.1817500	0.0229500	0.3741700	0.5765400	-0.2540400	0.2805000	0.2005500	-0.2564100	0.2316400	-0.1785200	-0.2758400	0.4064400	-0.2397700	-0.3372600	0.4010000	-0.2388700	-0.3361500	0.1967100	-0.2117500	-0.2617600	0.4423400	-0.2406700	0.0434200	0.4384300	-0.2384100	0.0444800	0.2312700	-0.2113100	0.0249700
14	0.2166667	0.3742100	1.1281500	-0.1475400	0.3889200	1.1317300	0.0356300	0.4757800	0.9254600	0.1838100	0.5893600	0.7549300	0.3560500	0.3703300	1.1226300	-0.3324900	0.4627800	0.9384300	-0.4952600	0.5606400	0.7593800	-0.6639000	0.3871000	0.5820900	-0.1312500	0.4056800	0.5882500	-0.0096400	0.3077400	0.2007000	0.0070800	0.2595900	-0.1818500	0.0228900	0.3743100	0.5765900	-0.2539400	0.2803500	0.2003800	-0.2563700	0.2315100	-0.1786400	-0.2759500	0.4065200	-0.2396200	-0.3372600	0.4010600	-0.2387100	-0.3361500	0.1964800	-0.2118700	-0.2619100	0.4423700	-0.2405700	0.0433700	0.4384700	-0.2383200	0.0444300	0.2312500	-0.2112800	0.0250200
15	0.2333333	0.3741700	1.1281100	-0.1474200	0.3888100	1.1317600	0.0358500	0.4757900	0.9254500	0.1839400	0.5892100	0.7551100	0.3562000	0.3703100	1.1226400	-0.3324300	0.4627100	0.9385300	-0.4951400	0.5607000	0.7593900	-0.6638200	0.3872600	0.5822300	-0.1313100	0.4059000	0.5882200	-0.0098600	0.3076600	0.2006500	0.0071600	0.2595200	-0.1818600	0.0228600	0.3743700	0.5766500	-0.2539100	0.2802400	0.2002500	-0.2563200	0.2313500	-0.1787700	-0.2760400	0.4066400	-0.2394300	-0.3372700	0.4011700	-0.2385300	-0.3361600	0.1963800	-0.2119900	-0.2622000	0.4424600	-0.2404500	0.0433200	0.4385600	-0.2382100	0.0443900	0.2310100	-0.2114100	0.0251600
16	0.2500000	0.3742100	1.1280900	-0.1473500	0.3888800	1.1317100	0.0359200	0.4758900	0.9253100	0.1840600	0.5893100	0.7550700	0.3562000	0.3703200	1.1226600	-0.3323500	0.4626700	0.9386200	-0.4950100	0.5607300	0.7594200	-0.6637300	0.3873300	0.5820400	-0.1312800	0.4060000	0.5879800	-0.0098000	0.3075400	0.2005700	0.0071900	0.2594800	-0.1819600	0.0228300	0.3745000	0.5764700	-0.2538500	0.2801800	0.2001800	-0.2562400	0.2312100	-0.1788800	-0.2761600	0.4067900	-0.2392800	-0.3373100	0.4013300	-0.2383800	-0.3362000	0.1961500	-0.2121600	-0.2624300	0.4426700	-0.2403600	0.0432800	0.4387800	-0.2381400	0.0443500	0.2309900	-0.2114200	0.0252700
17	0.2666667	0.3742900	1.1280700	-0.1473000	0.3890000	1.1316500	0.0359800	0.4760900	0.9250400	0.1842000	0.5894500	0.7549900	0.3561500	0.3703800	1.1226900	-0.3323300	0.4626900	0.9386900	-0.4949100	0.5607300	0.7595300	-0.6636500	0.3874000	0.5817200	-0.1312100	0.4060000	0.5875900	-0.0097200	0.3073600	0.2005200	0.0072200	0.2594600	-0.1820400	0.0228500	0.3745700	0.5763000	-0.2538200	0.2801600	0.2002400	-0.2561500	0.2310800	-0.1790200	-0.2763000	0.4070000	-0.2392100	-0.3373900	0.4015800	-0.2383000	-0.3362500	0.1959100	-0.2124000	-0.2626000	0.4429800	-0.2403500	0.0432300	0.4390900	-0.2381200	0.0442900	0.2309800	-0.2114900	0.0253800
18	0.2833333	0.3744500	1.1280900	-0.1472800	0.3892500	1.1315400	0.0359500	0.4763300	0.9247100	0.1843200	0.5898100	0.7548100	0.3561000	0.3704800	1.1227100	-0.3322900	0.4627800	0.9387600	-0.4948900	0.5607100	0.7595700	-0.6635700	0.3873500	0.5810900	-0.1310700	0.4058100	0.5870500	-0.0094300	0.3071600	0.2004300	0.0071800	0.2594600	-0.1821200	0.0229000	0.3747800	0.5757700	-0.2537400	0.2802100	0.2003900	-0.2560300	0.2309900	-0.1791500	-0.2764800	0.4072000	-0.2391500	-0.3374800	0.4018200	-0.2382300	-0.3363300	0.1954200	-0.2125900	-0.2627500	0.4433600	-0.2403800	0.0431800	0.4395100	-0.2381700	0.0442200	0.2312200	-0.2113700	0.0255100
